<svg xmlns="http://www.w3.org/2000/svg" viewBox="0 0 242.68 38.68" role="img" aria-label="ListenLayer">
  <g><g><g><g>
    <path d="M32.68,25.3,19.41,33.07a3.64,3.64,0,0,1-3.69,0L2.45,25.3l-1.4.8a2,2,0,0,0,0,3.51l14.64,8.57a3.64,3.64,0,0,0,3.69,0l14.67-8.57a2,2,0,0,0,.8-2.71,2.05,2.05,0,0,0-.8-.8Z" style="fill:#d8d8d8;fill-rule:evenodd"/>
    <path d="M32.68,16.79,19.41,24.56a3.69,3.69,0,0,1-3.69,0L2.45,16.79l-1.4.79a2,2,0,0,0-.81,2.71,2,2,0,0,0,.81.81l14.64,8.57a3.69,3.69,0,0,0,3.69,0L34.05,21.1a2,2,0,0,0,.81-2.71,2,2,0,0,0-.81-.81Z" style="fill:#20a8d8;fill-rule:evenodd"/>
    <path d="M15.72,21.15,1.05,12.58a2,2,0,0,1-.8-2.71,2.05,2.05,0,0,1,.8-.8L15.72.5a3.64,3.64,0,0,1,3.69,0L34.05,9.07a2,2,0,0,1,0,3.51L19.41,21.15A3.64,3.64,0,0,1,15.72,21.15Z" style="fill:#ffc107;fill-rule:evenodd"/>
    <path d="M52.74,8.44V24.86a1.54,1.54,0,0,0,1.55,1.55h5.49v3.4H48.46V10.42a2,2,0,0,1,2-2Z" style="fill:#212c36"/>
    <path d="M65,8.44h2.31V29.81H63V10.42A2,2,0,0,1,65,8.44Z" style="fill:#212c36"/>
    <path d="M78.39,30c-4.44,0-7.86-2.32-7.93-6.36h3.08a2.12,2.12,0,0,1,1.85,1.27,3,3,0,0,0,2.91,1.57c2,0,3.21-1.07,3.21-2.6,0-4.62-11-1.83-11-9.58,0-3.85,3.12-6.18,7.52-6.18s7.38,2.23,7.66,6.09H82.34a2,2,0,0,1-1.67-1.11,3,3,0,0,0-2.74-1.43c-1.68-.06-2.94.77-2.94,2.51,0,4.28,11,1.9,11,9.43C86,27,83.26,30,78.39,30Z" style="fill:#212c36"/>
    <path d="M119.19,11.9h-7.36a.76.76,0,0,0-.75.76v4.6h7.19v3.4h-7.22v5.66h8.11v3.49h-12.4V9.64A1.23,1.23,0,0,1,108,8.41h11.24Z" style="fill:#212c36"/>
    <path d="M140.65,8.41v21.4h-3.22a2,2,0,0,1-1.65-.89l-9.11-13.77V29.81h-4.29V8.41h3.22a2,2,0,0,1,1.65.89l9.12,13.81V8.41Z" style="fill:#212c36"/>
    <path d="M175.6,25.07h-9.3l-1.72,4.74h-2.93L168.89,9.9a2,2,0,0,1,1.85-1.3h1.83l7.69,21.21h-2.94ZM171,12,167.1,22.8h7.71Z" style="fill:#212c36"/>
    <path d="M180.26,8.48h3.09L187.51,17a1.22,1.22,0,0,0,2.2,0l4.17-8.54H197l-6.92,13.3v8h-2.79v-8Z" style="fill:#212c36"/>
    <path d="M211.18,10.74h-7.94a.76.76,0,0,0-.76.76v6.37h7.78v2.3h-7.78v7.34h8.7v2.3H199.7V9.67a1.22,1.22,0,0,1,1.21-1.23h10.27Z" style="fill:#212c36"/>
    <path d="M221.26,8.48c5,0,7.4,2.78,7.4,6.27a6,6,0,0,1-5.08,6.12l5.36,8.94H225.6l-5.08-8.72h-3.36v8.72h-2.79V10.45a2,2,0,0,1,2-2Zm0,2.29h-2.88A1.22,1.22,0,0,0,217.16,12h0v6.86h4.1c3.15,0,4.53-1.71,4.53-4.1S224.44,10.77,221.26,10.77Z" style="fill:#212c36"/>
    <path d="M103.61,8.45v3.46H97.9v17.9H93.62V11.91H87.93V9.43a1,1,0,0,1,1-1Z" style="fill:#212c36"/>
    <path d="M159.27,27.53v2.28H149.05V9.46a1,1,0,0,1,1-1h1.8V26.31a1.21,1.21,0,0,0,1.2,1.22Z" style="fill:#212c36"/>
    <path d="M236.34,9.33V13.6h-1V9.33h-1.29V8.48h3.59v.85Z" style="fill:#212c36"/>
    <path d="M242.68,13.6h-1v-3l-1,2h-.63l-1-2.07V13.6h-1V8.48h1l1.32,2.83,1.3-2.83h1Z" style="fill:#212c36"/>
  </g></g></g></g>
</svg>
